<svg width="42" height="44" viewBox="0 0 42 44" fill="none" xmlns="http://www.w3.org/2000/svg">
<path d="M13.0607 0.939344C12.4749 0.353558 11.5251 0.353558 10.9393 0.939344L1.3934 10.4853C0.807611 11.0711 0.807611 12.0208 1.3934 12.6066C1.97919 13.1924 2.92893 13.1924 3.51472 12.6066L12 4.12132L20.4853 12.6066C21.0711 13.1924 22.0208 13.1924 22.6066 12.6066C23.1924 12.0208 23.1924 11.0711 22.6066 10.4853L13.0607 0.939344ZM13.5 32.8333L13.5 2H10.5L10.5 32.8333H13.5Z" fill="#B762CC"/>
<path d="M31.0609 43.0607C30.4751 43.6464 29.5254 43.6464 28.9396 43.0607L19.3936 33.5147C18.8079 32.9289 18.8079 31.9792 19.3936 31.3934C19.9794 30.8076 20.9292 30.8076 21.515 31.3934L30.0002 39.8787L38.4855 31.3934C39.0713 30.8076 40.0211 30.8076 40.6068 31.3934C41.1926 31.9792 41.1926 32.9289 40.6068 33.5147L31.0609 43.0607ZM31.5002 11.1667V42H28.5002V11.1667H31.5002Z" fill="#B762CC"/>
</svg>
