<svg width="52" height="44" viewBox="0 0 52 44" fill="none" xmlns="http://www.w3.org/2000/svg">
<path d="M26 8.17514C23.2497 4.71473 19.0102 1.25431 8.50298 1.00037C7.81283 0.983717 7.25 1.53789 7.25 2.22035C7.25 7.28305 7.25 26.4497 7.25 32.1182C7.25 32.8006 7.81288 33.3367 8.50285 33.3589C19.0101 33.6985 23.2497 38.3038 26 41.7643M26 8.17514C28.7503 4.71473 32.9898 1.25431 43.497 1.00037C44.1873 0.983717 44.75 1.52543 44.75 2.2079C44.75 7.86715 44.75 26.4572 44.75 32.1165C44.75 32.7989 44.1872 33.3367 43.4972 33.3589C32.99 33.6985 28.7503 38.3038 26 41.7643M26 8.17514V41.7643" stroke="#636779" stroke-width="2" stroke-linejoin="round"/>
<path d="M44.0883 5.92847H49.75C50.4403 5.92847 51 6.48172 51 7.16419V39.3893C51 40.3893 49.8082 41.0536 48.8837 40.6475C46.896 39.7744 43.5787 38.7077 39.2352 38.7077C31.8822 38.7077 26 43.0001 26 43.0001C26 43.0001 20.1177 38.7077 12.7647 38.7077C8.42113 38.7077 5.1039 39.7744 3.11618 40.6475C2.1917 41.0536 1 40.3893 1 39.3893V7.16419C1 6.48172 1.55965 5.92847 2.25 5.92847H7.91177" stroke="#636779" stroke-width="2" stroke-linejoin="round"/>
</svg>
