<svg width="49" height="40" viewBox="0 0 49 40" fill="none" xmlns="http://www.w3.org/2000/svg">
<path d="M34.8308 11.6102C34.7557 11.4146 34.5698 11.2847 34.3612 11.282H14.6387C14.4227 11.2761 14.2264 11.4076 14.1487 11.6102C10.9197 20.364 9.24057 29.6181 9.18746 38.9536C9.18197 39.2291 9.2871 39.4953 9.47914 39.6921C9.67118 39.8889 9.93398 39.9998 10.2083 39.9997H38.7916C39.0689 40.0063 39.336 39.8945 39.5266 39.692C39.7228 39.4984 39.8269 39.2295 39.8125 38.9536C39.7495 29.6172 38.0636 20.3636 34.8308 11.6102ZM26.6641 32.7177C26.4339 32.7669 26.2711 32.9736 26.2762 33.21V33.8459C26.265 34.6989 25.5736 35.3845 24.7245 35.3844C23.8868 35.3732 23.2136 34.6876 23.2137 33.8459V33.3331C23.2027 33.0466 22.9683 32.8201 22.6829 32.8203H21.662C20.8164 32.8203 20.1308 32.1315 20.1308 31.2818C20.1308 30.4322 20.8164 29.7434 21.662 29.7434H25.7454C26.3276 29.7499 26.8312 29.337 26.9415 28.7625C27.0519 28.1881 26.7374 27.6166 26.1945 27.4049L21.9683 25.7024C20.1678 25.0315 19.0394 23.2302 19.2163 21.309C19.3932 19.3878 20.8313 17.825 22.7237 17.4973C22.9577 17.4494 23.1273 17.2449 23.132 17.005V16.3691C23.132 15.5274 23.8052 14.8419 24.6429 14.8307C25.4919 14.8306 26.1834 15.5161 26.1945 16.3691V16.8819C26.1943 17.1573 26.4107 17.3837 26.6845 17.3947H27.7054C28.5511 17.3947 29.2366 18.0835 29.2366 18.9332C29.2366 19.7829 28.5511 20.4716 27.7054 20.4716H23.622C23.0398 20.4651 22.5362 20.878 22.4259 21.4525C22.3156 22.0269 22.63 22.5984 23.1729 22.8101L27.3991 24.5126C29.1996 25.1835 30.328 26.9849 30.1511 28.906C29.9743 30.8272 28.5362 32.3901 26.6437 32.7177H26.6641Z" fill="#B762CC"/>
<path d="M45.9375 0H3.0625C1.37113 0 0 1.37758 0 3.0769V14.3589C0 16.0582 1.37113 17.4358 3.0625 17.4358H7.595C7.85126 17.4766 8.09721 17.3177 8.16667 17.0666C8.75875 15.0153 9.39167 12.964 10.2083 10.9128C10.2882 10.7657 10.2882 10.588 10.2083 10.441C10.1216 10.2984 9.96628 10.2126 9.8 10.2153H7.14583C6.01825 10.2153 5.10417 9.29694 5.10417 8.16405C5.10417 7.03117 6.01825 6.11278 7.14583 6.11278H41.8542C42.9818 6.11278 43.8958 7.03117 43.8958 8.16405C43.8958 9.29694 42.9818 10.2153 41.8542 10.2153H39.4246C39.253 10.2133 39.0919 10.2981 38.9958 10.441C38.9159 10.588 38.9159 10.7657 38.9958 10.9128C39.7308 12.8615 40.3842 14.8922 41.0375 17.0666C41.1066 17.2815 41.3028 17.4293 41.5275 17.4358H45.9375C47.6289 17.4358 49 16.0582 49 14.3589V3.0769C49 1.37758 47.6289 0 45.9375 0Z" fill="#B762CC"/>
</svg>
