<svg width="38" height="40" viewBox="0 0 38 40" fill="none" xmlns="http://www.w3.org/2000/svg">
<path d="M17.5639 0C16.1208 0 14.8498 0.739535 14.1009 1.86047H10.6125C10.1565 1.86047 9.7306 2.0851 9.472 2.46185C9.21248 2.83766 9.15235 3.31753 9.3127 3.74637L11.3873 9.30233H23.7423L25.8187 3.74637C25.9791 3.31753 25.9189 2.83766 25.6594 2.46185C25.3999 2.0851 24.9713 1.86047 24.5153 1.86047H21.0287C20.2798 0.739535 19.007 0 17.5639 0ZM9.39054 12.093C5.54409 15.5349 -0.294315 22.1868 0.0115481 30.5868C0.187651 35.3403 4.05264 39.0698 8.81669 39.0698H20.0114C18.5266 37.4874 17.6092 35.3628 17.6092 33.0233C17.6092 28.3395 21.2623 24.5045 25.8567 24.2133L26.7184 23.1668C28.1337 21.4496 30.219 20.4651 32.4389 20.4651C32.4769 20.4651 32.5131 20.4696 32.5511 20.4706C30.5825 16.8668 27.8615 13.9907 25.7409 12.093H9.39054ZM32.4389 22.3256C30.7149 22.3256 29.1663 23.116 28.1467 24.3532C32.0951 25.1532 35.0899 28.5853 35.2104 32.7435C36.8787 31.776 38 29.9721 38 27.907C38 24.8279 35.5068 22.3256 32.4389 22.3256ZM26.4143 26.0465C22.5751 26.0465 19.4629 29.1701 19.4629 33.0233C19.4629 36.8764 22.5751 40 26.4143 40C30.2535 40 33.3657 36.8764 33.3657 33.0233C33.3657 29.1701 30.2535 26.0465 26.4143 26.0465Z" fill="#B762CC"/>
</svg>
