<svg width="100" height="100" viewBox="0 0 100 100" fill="none" xmlns="http://www.w3.org/2000/svg">
<path d="M27.781 31.8203C27.3357 36.5703 27.0232 44.9766 29.8279 48.5547C29.8279 48.5547 28.5076 39.3203 40.3435 27.7344C45.1091 23.0703 46.2107 16.7266 44.5466 11.9687C43.6013 9.27344 41.8747 7.04687 40.3747 5.49219C39.4997 4.57812 40.1716 3.07031 41.445 3.125C49.1482 3.46875 61.6325 5.60937 66.9372 18.9219C69.2654 24.7656 69.4372 30.8047 68.3279 36.9453C67.6247 40.8672 65.1247 49.5859 70.8279 50.6562C74.8982 51.4219 76.8669 48.1875 77.7497 45.8594C78.1169 44.8906 79.3904 44.6484 80.0779 45.4219C86.9529 53.2422 87.5388 62.4531 86.1169 70.3828C83.3669 85.7109 67.8435 96.8672 52.4216 96.8672C33.156 96.8672 17.8201 85.8438 13.8435 65.8906C12.2419 57.8359 13.0544 41.8984 25.4763 30.6484C26.3982 29.8047 27.906 30.5547 27.781 31.8203Z" fill="url(#paint0_radial_138_752)"/>
<path d="M59.4605 60.4844C52.3589 51.3437 55.5386 40.9141 57.2808 36.7578C57.5152 36.2109 56.8902 35.6953 56.398 36.0312C53.3433 38.1094 47.0855 43 44.1714 49.8828C40.2261 59.1875 40.5074 63.7422 42.8433 69.3047C44.2496 72.6562 42.6167 73.3672 41.7964 73.4922C40.9996 73.6172 40.2652 73.0859 39.6792 72.5312C37.9996 70.9297 36.7886 68.8437 36.2105 66.5937C36.0855 66.1094 35.4527 65.9766 35.1636 66.375C32.9761 69.3984 31.8433 74.25 31.7886 77.6797C31.6167 88.2812 40.3746 96.875 50.9683 96.875C64.3199 96.875 74.0464 82.1094 66.3746 69.7656C64.148 66.1719 62.0542 63.8203 59.4605 60.4844Z" fill="url(#paint1_radial_138_752)"/>
<defs>
<radialGradient id="paint0_radial_138_752" cx="0" cy="0" r="1" gradientUnits="userSpaceOnUse" gradientTransform="translate(48.606 97.1102) rotate(-179.751) scale(55.1466 90.4846)">
<stop offset="0.3144" stop-color="#FF9800"/>
<stop offset="0.6616" stop-color="#FF6D00"/>
<stop offset="0.9715" stop-color="#F44336"/>
</radialGradient>
<radialGradient id="paint1_radial_138_752" cx="0" cy="0" r="1" gradientUnits="userSpaceOnUse" gradientTransform="translate(51.7025 42.2335) rotate(90.5787) scale(57.7002 43.4238)">
<stop offset="0.2141" stop-color="#FFF176"/>
<stop offset="0.3275" stop-color="#FFF27D"/>
<stop offset="0.4868" stop-color="#FFF48F"/>
<stop offset="0.6722" stop-color="#FFF7AD"/>
<stop offset="0.7931" stop-color="#FFF9C4"/>
<stop offset="0.8221" stop-color="#FFF8BD" stop-opacity="0.804"/>
<stop offset="0.8627" stop-color="#FFF6AB" stop-opacity="0.529"/>
<stop offset="0.9101" stop-color="#FFF38D" stop-opacity="0.2088"/>
<stop offset="0.9409" stop-color="#FFF176" stop-opacity="0"/>
</radialGradient>
</defs>
</svg>
