<svg width="150" height="85" viewBox="0 0 150 85" fill="none" xmlns="http://www.w3.org/2000/svg">
<g opacity="0.5">
<path d="M112.713 11.5429C110.038 11.5434 99.3113 12.5266 98.9636 28.3125C98.8111 41.4523 104.118 43.6692 104.364 46.2899C104.582 48.6058 104.244 50.4746 103.962 53.247C102.923 60.2483 74.9506 54.0114 76.5725 75.7103L113.188 76.0032H113.316L149.932 75.7103C151.555 54.0117 123.582 60.248 122.543 53.247C122.26 50.4748 121.923 48.6059 122.14 46.2899C122.386 43.6684 127.694 41.4515 127.541 28.3125C127.154 10.749 114.016 11.5088 113.316 11.5608C113.316 11.5608 113.207 11.5622 113.188 11.5608C113.117 11.5554 113.013 11.5424 112.712 11.5425L112.713 11.5429Z" fill="#636779"/>
<path d="M36.208 11.5429C33.5334 11.5434 22.8067 12.5266 22.4589 28.3125C22.3065 41.4523 27.6137 43.6692 27.8598 46.2899C28.0771 48.6058 27.7397 50.4746 27.457 53.247C26.4184 60.2483 -1.55404 54.0114 0.0678783 75.7103L36.6836 76.0032H36.8118L73.4275 75.7103C75.0494 54.0133 47.0774 60.2493 46.0384 53.2486C45.7557 50.4764 45.4183 48.6075 45.6356 46.2916C45.8816 43.67 51.1889 41.4531 51.0364 28.3141C50.6495 10.7506 37.5117 11.5104 36.8113 11.5624C36.8113 11.5624 36.7022 11.5638 36.6831 11.5624C36.6122 11.557 36.5083 11.544 36.2071 11.5441L36.208 11.5429Z" fill="#636779"/>
<path d="M73.9473 0.00113983C70.4546 0.00178924 56.4471 1.2857 55.9925 21.9011C55.7934 39.0603 62.7241 41.9551 63.0454 45.3791C63.3292 48.4035 62.8885 50.844 62.5194 54.4642C61.163 63.6073 24.634 55.4624 26.7528 83.7999L74.5693 84.1824H74.7367L122.553 83.7999C124.672 55.461 88.1423 63.6063 86.785 54.4625C86.4159 50.8424 85.9752 48.4018 86.259 45.3775C86.5802 41.9541 93.511 39.059 93.3118 21.8995C92.8065 -1.0363 75.6493 -0.044317 74.7353 0.0238718C74.7353 0.0238718 74.5928 0.025333 74.5679 0.0238718C74.4753 0.016988 74.3395 -7.60514e-05 73.9463 2.55082e-07L73.9473 0.00113983Z" fill="#75798A"/>
</g>
</svg>
