<svg width="23" height="16" viewBox="0 0 23 16" fill="none" xmlns="http://www.w3.org/2000/svg">
<path d="M22.846 7.43118C22.1103 6.163 18.0639 -0.200778 11.1896 0.00487403C4.83265 0.164825 1.15411 5.71742 0.15401 7.43118C0.0531162 7.60487 0 7.80189 0 8.00244C0 8.20299 0.0531162 8.40001 0.15401 8.57369C0.878222 9.81903 4.75218 16 11.523 16H11.8104C18.1674 15.84 21.8574 10.2875 22.846 8.57369C22.9469 8.40001 23 8.20299 23 8.00244C23 7.80189 22.9469 7.60487 22.846 7.43118ZM11.7529 13.715C6.79837 13.8292 3.56815 9.61337 2.55655 8.00244C3.7061 6.163 6.70641 2.40414 11.3046 2.28989C16.2361 2.16422 19.4778 6.3915 20.5009 8.00244C19.3169 9.84188 16.3511 13.6007 11.7529 13.715Z" fill="#6B778A"/>
<path d="M11.5001 4.00365C10.7043 4.00365 9.92645 4.23818 9.26481 4.67757C8.60316 5.11696 8.08747 5.74149 7.78295 6.47217C7.47843 7.20285 7.39875 8.00687 7.55399 8.78256C7.70924 9.55825 8.09243 10.2708 8.65511 10.83C9.2178 11.3892 9.9347 11.7701 10.7152 11.9244C11.4956 12.0787 12.3046 11.9995 13.0398 11.6968C13.775 11.3942 14.4033 10.8816 14.8454 10.224C15.2875 9.56644 15.5235 8.79332 15.5235 8.00244C15.5235 6.94189 15.0996 5.92479 14.3451 5.17487C13.5905 4.42495 12.5672 4.00365 11.5001 4.00365ZM11.5001 9.7162C11.1591 9.7162 10.8257 9.61569 10.5421 9.42738C10.2585 9.23907 10.0375 8.97141 9.90703 8.65826C9.77652 8.34512 9.74237 8.00053 9.8089 7.6681C9.87544 7.33566 10.0397 7.0303 10.2808 6.79062C10.522 6.55095 10.8292 6.38773 11.1637 6.3216C11.4982 6.25548 11.8449 6.28941 12.16 6.41912C12.475 6.54884 12.7443 6.76849 12.9338 7.05032C13.1233 7.33215 13.2244 7.66349 13.2244 8.00244C13.2244 8.45695 13.0427 8.89286 12.7194 9.21425C12.396 9.53564 11.9574 9.7162 11.5001 9.7162Z" fill="#6B778A"/>
</svg>
