<svg width="45" height="40" viewBox="0 0 45 40" fill="none" xmlns="http://www.w3.org/2000/svg">
<path d="M22.1691 0.000541598C20.5315 0.000850174 13.964 0.610914 13.7509 10.4065C13.6575 18.5598 16.907 19.9353 17.0577 21.5623C17.1907 22.9993 16.9841 24.1589 16.8111 25.8791C16.1751 30.2235 -0.951794 26.3534 0.0415862 39.8182L22.4608 40H22.5392L44.9584 39.8182C45.9518 26.3528 28.8245 30.2231 28.1882 25.8783C28.0151 24.1582 27.8085 22.9985 27.9416 21.5615C28.0922 19.9349 31.3417 18.5592 31.2483 10.4057C31.0114 -0.492408 22.9671 -0.0210576 22.5386 0.0113429C22.5386 0.0113429 22.4718 0.0120372 22.4601 0.0113429C22.4167 0.00807198 22.353 -3.61365e-05 22.1687 1.21204e-07L22.1691 0.000541598Z" fill="#B762CC"/>
</svg>
