<svg width="40" height="40" viewBox="0 0 40 40" fill="none" xmlns="http://www.w3.org/2000/svg">
<path d="M29.4141 0L26.5859 2.87017L31.1719 7.52428H30C17.8732 7.52428 8 17.5442 8 29.8513V31.8811H12V29.8513C12 19.738 20.0348 11.5837 30 11.5837H31.1719L26.5859 16.2379L29.4141 19.108L38.8281 9.55401L29.4141 0ZM0 11.5837V13.6135V33.9108C0 37.2497 2.71006 40 6 40H34C37.2899 40 40 37.2497 40 33.9108V31.8811V29.8513H36V31.8811V33.9108C36 35.0577 35.1301 35.9405 34 35.9405H6C4.86994 35.9405 4 35.0577 4 33.9108V13.6135V11.5837H0Z" fill="#B762CC"/>
</svg>
