<svg width="60" height="60" viewBox="0 0 60 60" fill="none" xmlns="http://www.w3.org/2000/svg">
<circle cx="30" cy="30" r="30" fill="url(#paint0_linear_39_204)"/>
<path d="M23.3688 12.0163C22.783 11.4305 21.8332 11.4305 21.2474 12.0163L11.7015 21.5622C11.1157 22.148 11.1157 23.0978 11.7015 23.6836C12.2873 24.2693 13.237 24.2693 13.8228 23.6836L22.3081 15.1983L30.7934 23.6836C31.3792 24.2693 32.3289 24.2693 32.9147 23.6836C33.5005 23.0978 33.5005 22.148 32.9147 21.5622L23.3688 12.0163ZM23.8081 38.9511V13.077H20.8081V38.9511H23.8081Z" fill="white"/>
<path d="M38.7526 47.704C38.1668 48.2898 37.217 48.2898 36.6312 47.704L27.0853 38.1581C26.4995 37.5723 26.4995 36.6226 27.0853 36.0368C27.6711 35.451 28.6208 35.451 29.2066 36.0368L37.6919 44.5221L46.1772 36.0368C46.763 35.451 47.7127 35.451 48.2985 36.0368C48.8843 36.6226 48.8843 37.5723 48.2985 38.1581L38.7526 47.704ZM39.1919 20.7693V46.6434H36.1919V20.7693H39.1919Z" fill="white"/>
<defs>
<linearGradient id="paint0_linear_39_204" x1="55" y1="14.2308" x2="7.69231" y2="51.9231" gradientUnits="userSpaceOnUse">
<stop stop-color="#8402A4"/>
<stop offset="1" stop-color="#BF3FE0"/>
</linearGradient>
</defs>
</svg>
