<svg width="100" height="100" viewBox="0 0 100 100" fill="none" xmlns="http://www.w3.org/2000/svg">
<rect width="100" height="100" rx="20" fill="#A402CD" fill-opacity="0.15"/>
<path d="M49.1154 27.0005C48.903 26.9957 48.6913 27.0275 48.4897 27.0944L26.2688 34.4944C25.6406 34.7034 25.1718 35.2314 25.039 35.8794C24.9061 36.5274 25.1295 37.1969 25.625 37.6357C26.1204 38.0746 26.8125 38.2159 27.4406 38.0065L49.0756 30.8016L70.7106 38.0065C71.3386 38.2158 72.0307 38.0744 72.526 37.6356C73.0214 37.1968 73.2447 36.5273 73.112 35.8794C72.9792 35.2314 72.5105 34.7035 71.8824 34.4944L49.6615 27.0944C49.4852 27.0359 49.3011 27.0042 49.1154 27.0005ZM49.1154 39.9505C48.903 39.9457 48.6913 39.9775 48.4897 40.0444L26.2688 47.4444C25.5113 47.6955 25 48.4031 25 49.2005C25 49.9978 25.5113 50.7054 26.2688 50.9565L48.4897 58.3565C48.87 58.4832 49.2812 58.4832 49.6615 58.3565L69.4448 51.7695V62.6636C68.3418 63.3042 67.593 64.4834 67.593 65.8505C67.593 67.8947 71.2965 73.2505 71.2965 73.2505C71.2965 73.2505 75 67.8947 75 65.8505C75 64.4834 74.2512 63.3042 73.1483 62.6636V49.2944C73.1491 49.2631 73.1491 49.2318 73.1483 49.2005C73.1479 49.1498 73.1455 49.0992 73.141 49.0487C73.1411 49.0379 73.1411 49.027 73.141 49.0162C73.1381 48.986 73.1345 48.9559 73.1302 48.9259C73.129 48.9174 73.1278 48.909 73.1266 48.9006C73.1179 48.8483 73.1071 48.7965 73.094 48.7452C72.9217 48.0275 72.3389 47.4808 71.6112 47.3541L49.6615 40.0444C49.4852 39.9859 49.3011 39.9542 49.1154 39.9505ZM36.1134 58.1325V64.0005C36.1134 64.0005 39.0873 67.7005 49.0756 67.7005C59.0639 67.7005 62.0378 64.0005 62.0378 64.0005V58.1325L50.8333 61.865C50.263 62.0537 49.6681 62.1505 49.0756 62.1505C48.483 62.1505 47.8882 62.0537 47.3179 61.865L36.1134 58.1325Z" fill="#8806A9"/>
</svg>
