<svg width="100" height="100" viewBox="0 0 100 100" fill="none" xmlns="http://www.w3.org/2000/svg">
<rect width="100" height="100" rx="20" fill="#A402CD" fill-opacity="0.15"/>
<path d="M50 25C46.7323 25 44.2308 27.5015 44.2308 30.7692V42.3077C44.2308 45.5754 46.7323 48.0769 50 48.0769H61.5385L69.2308 55.7692V48.0769C72.4985 48.0769 75 45.5754 75 42.3077V30.7692C75 27.5015 72.4985 25 69.2308 25H50ZM58.0529 30.7692H61.3582L64.6034 42.3077H61.7188L60.9375 39.4231H58.0529L57.3317 42.3077H54.8077L58.0529 30.7692ZM59.6154 32.6923C59.4201 33.4585 59.2097 34.3975 59.0144 34.976L58.4736 37.5H60.7572L60.2163 34.976C59.8332 34.3975 59.6154 33.4585 59.6154 32.6923ZM30.7692 44.2308C27.5015 44.2308 25 46.7323 25 50V61.5385C25 64.8062 27.5015 67.3077 30.7692 67.3077V75L38.4615 67.3077H50C53.2677 67.3077 55.7692 64.8062 55.7692 61.5385V50H50C46.3492 50 43.4495 47.4985 42.488 44.2308H30.7692ZM39.6034 49.8197C42.8711 49.8197 44.4111 52.509 44.4111 55.5889C44.4111 58.2782 43.4871 59.991 41.9471 60.7572C42.7133 61.1403 43.6298 61.3431 44.5913 61.5385L43.8702 63.4615C42.5255 63.0784 41.1283 62.4775 39.7837 61.899C39.5883 61.7037 39.2578 61.7188 39.0625 61.7188C36.7563 61.5234 34.6154 59.6154 34.6154 55.7692C34.6154 52.5015 36.5234 49.8197 39.6034 49.8197ZM39.6034 51.9231C38.0634 51.9231 37.3197 53.6508 37.3197 55.7692C37.3197 58.0754 38.0634 59.6154 39.6034 59.6154C41.1433 59.6154 41.9471 57.8876 41.9471 55.7692C41.9471 53.6508 41.1433 51.9231 39.6034 51.9231Z" fill="#8806A9"/>
</svg>
