<svg width="100" height="100" viewBox="0 0 100 100" fill="none" xmlns="http://www.w3.org/2000/svg">
<rect width="100" height="100" rx="20" fill="#A402CD" fill-opacity="0.15"/>
<path d="M72.25 57.38L68.0833 55.3175C67.4167 55.07 66.6667 55.3175 66.4167 55.895C66.3333 56.06 66.25 56.225 66.25 56.39C66.25 56.8025 66.5 57.2975 66.9167 57.4625L71.0833 59.525C71.75 59.7725 72.5 59.525 72.75 58.9475C73.0833 58.4525 72.8333 57.71 72.25 57.38ZM73.75 46.5725H67.5C66.8333 46.5725 66.25 47.0675 66.25 47.81C66.25 48.5525 66.8333 49.0475 67.5 49.0475H73.75C74.4167 49.0475 75 48.5525 75 47.81C75 47.0675 74.4167 46.5725 73.75 46.5725ZM68.0833 40.22L72.25 38.1575C72.9167 37.8275 73.0833 37.085 72.8333 36.5075C72.5833 35.8475 71.75 35.6 71.1667 36.0125L67 38.075C66.5833 38.3225 66.3333 38.735 66.3333 39.23C66.3333 39.4775 66.3333 39.6425 66.5 39.725C66.6667 40.22 67.5 40.55 68.0833 40.22ZM60.4167 29C58.8333 29 57.5 30.2375 57.5 31.8875V33.2075C55.6667 37.58 51.4167 40.3025 46.75 40.3025H46.6667C46.25 39.3125 45.1667 38.6525 44.0833 38.6525H34.4167C33.3333 38.6525 32.3333 39.3125 31.8333 40.3025H29.5833C27.0833 40.3025 25 42.365 25 44.84V51.275C25 53.75 27.0833 55.73 29.5 55.73H31.8333V55.6475C32.25 56.6375 33.3333 57.2975 34.4167 57.2975H34.8333V68.3525C34.8333 69.425 35.6667 70.25 36.75 70.25H38.1667C40.4167 70.25 42.3333 68.6 42.5833 66.29L43.6667 57.2975H44.25C45.3333 57.2975 46.3333 56.6375 46.8333 55.73H46.9167C51.6667 55.73 55.8333 58.4525 57.6667 62.825V64.2275C57.6667 65.795 58.9167 67.0325 60.5833 67.0325C62.25 67.0325 63.5 65.795 63.5 64.2275V31.8875C63.3333 30.2375 62 29 60.4167 29ZM31.5 53.255H29.5C28.4167 53.1725 27.5 52.3475 27.5 51.1925V44.7575C27.5 43.6025 28.4167 42.7775 29.5 42.7775H31.5V53.255ZM40 66.0425C39.9167 67.0325 39 67.775 38 67.775H37.25V59.7725H40.6667L40 66.0425ZM44.5833 54.41C44.5833 54.6575 44.4167 54.8225 44.1667 54.8225H42.5H36H34.3333C34.0833 54.8225 33.9167 54.6575 33.9167 54.41V41.54C33.9167 41.2925 34.0833 41.1275 34.3333 41.1275H44.0833C44.3333 41.1275 44.5 41.2925 44.5 41.54V54.41H44.5833ZM57.5 55.235C54.9167 52.265 51.1667 50.45 47 50.285V42.7775C51.1667 42.695 54.9167 40.88 57.5 37.8275V55.235ZM60.8333 60.9275C60.8333 61.175 60.6667 61.2575 60.4167 61.2575C60.1667 61.2575 60 61.0925 60 60.9275V59.2775V33.455V31.805C60 31.5575 60.1667 31.3925 60.4167 31.3925C60.6667 31.3925 60.8333 31.5575 60.8333 31.805V60.9275Z" fill="#8806A9"/>
</svg>
