<svg width="100" height="100" viewBox="0 0 100 100" fill="none" xmlns="http://www.w3.org/2000/svg">
<rect width="100" height="100" rx="20" fill="#A402CD" fill-opacity="0.15"/>
<path d="M32.8947 20C28.5408 20 25 23.4734 25 27.7446V72.1699C25 76.1429 28.5408 79.375 32.8947 79.375H73.6842C74.4105 79.375 75 78.798 75 78.0842C75 77.3704 74.4105 76.7935 73.6842 76.7935H32.8947C30.0421 76.7935 27.6316 74.6766 27.6316 72.1699C27.6316 69.6968 29.9434 67.7582 32.8947 67.7582H73.6842C74.4105 67.7582 75 67.1812 75 66.4674V21.2908C75 20.577 74.4105 20 73.6842 20H32.8947ZM51.3158 29.0353C57.1197 29.0353 61.8421 33.6679 61.8421 39.3614C61.8421 46.8207 52.427 58.1378 52.3309 58.2514C52.0822 58.5496 51.7092 58.7228 51.3158 58.7228C50.9224 58.7228 50.5494 58.5496 50.3007 58.2514C50.2046 58.1378 40.7895 46.8207 40.7895 39.3614C40.7895 33.6679 45.5118 29.0353 51.3158 29.0353ZM51.3158 35.4891C49.1357 35.4891 47.3684 37.2228 47.3684 39.3614C47.3684 41.5 49.1357 43.2337 51.3158 43.2337C53.4959 43.2337 55.2632 41.5 55.2632 39.3614C55.2632 37.2228 53.4959 35.4891 51.3158 35.4891Z" fill="#8806A9"/>
</svg>
