<svg viewBox="0 0 32 32" width="32" height="32" fill="none" xmlns="http://www.w3.org/2000/svg"><path d="M15.013.031c-1.137.112-1.475.156-2.053.27C6.474 1.575 1.469 6.624.273 13.099.081 14.141.032 14.727.032 16s.049 1.859.241 2.901c1.125 6.093 5.689 11.008 11.672 12.571a16.003 16.003 0 0 0 13.015-2.233 16.006 16.006 0 0 0 6.512-9.184c1.147-4.39.354-9.161-2.14-12.882C26.696 3.241 22.654.729 18 .131c-.615-.079-2.543-.143-2.987-.1m2.534 2.054c5.969.613 11.015 5.241 12.18 11.17.2 1.017.259 1.642.259 2.745 0 .543-.028 1.227-.062 1.52A14.045 14.045 0 0 1 17.52 29.924c-.686.079-2.354.079-3.04 0a13.985 13.985 0 0 1-8.372-4.032c-2.269-2.268-3.663-5.162-4.032-8.372-.079-.686-.079-2.354 0-3.04.592-5.146 3.894-9.51 8.671-11.459 2.114-.863 4.421-1.18 6.8-.936m-1.92 2.988c-.173.069-.413.297-.525.5-.081.146-.09.624-.103 5.252-.011 3.59.003 5.179.045 5.387l.059.295 3.662 3.672c2.5 2.508 3.729 3.704 3.875 3.772.27.127.58.127.853.002.254-.116.368-.235.478-.5a.993.993 0 0 0 0-.775c-.057-.138-1.123-1.24-3.519-3.638l-3.437-3.44-.014-4.933c-.013-4.481-.022-4.948-.103-5.094-.117-.211-.355-.433-.541-.503-.185-.07-.551-.068-.73.003" fill-rule="evenodd" fill="#000"/></svg>