<svg width="13" height="12" viewBox="0 0 13 12" fill="none" xmlns="http://www.w3.org/2000/svg">
	<path fill-rule="evenodd" clip-rule="evenodd" d="M0.656846 0.292039C1.04737 -0.0984856 1.68054 -0.0984856 2.07106 0.292039L6.36483 4.58581L10.6075 0.343167C10.998 -0.0473571 11.6312 -0.0473571 12.0217 0.343167C12.4122 0.733691 12.4122 1.36686 12.0217 1.75738L7.77904 6.00002L12.0217 10.2427C12.4122 10.6332 12.4122 11.2663 12.0217 11.6569C11.6312 12.0474 10.998 12.0474 10.6075 11.6569L6.36483 7.41424L2.07106 11.708C1.68054 12.0985 1.04737 12.0985 0.656848 11.708C0.266324 11.3175 0.266324 10.6843 0.656848 10.2938L4.95062 6.00002L0.656846 1.70625C0.266322 1.31573 0.266322 0.682563 0.656846 0.292039Z" fill="#969FAF" />
</svg>