<svg width="16" height="16" viewBox="0 0 16 16" fill="none" xmlns="http://www.w3.org/2000/svg">
<path d="M8 0C6.95433 0 6.15385 0.800481 6.15385 1.84615V5.53846C6.15385 6.58414 6.95433 7.38462 8 7.38462H11.6923L14.1538 9.84615V7.38462C15.1995 7.38462 16 6.58414 16 5.53846V1.84615C16 0.800481 15.1995 0 14.1538 0H8ZM10.5769 1.84615H11.6346L12.6731 5.53846H11.75L11.5 4.61538H10.5769L10.3462 5.53846H9.53846L10.5769 1.84615ZM11.0769 2.46154C11.0144 2.70673 10.9471 3.00721 10.8846 3.19231L10.7115 4H11.4423L11.2692 3.19231C11.1466 3.00721 11.0769 2.70673 11.0769 2.46154ZM1.84615 6.15385C0.800481 6.15385 0 6.95433 0 8V11.6923C0 12.738 0.800481 13.5385 1.84615 13.5385V16L4.30769 13.5385H8C9.04567 13.5385 9.84615 12.738 9.84615 11.6923V8H8C6.83173 8 5.90385 7.19952 5.59615 6.15385H1.84615ZM4.67308 7.94231C5.71875 7.94231 6.21154 8.80289 6.21154 9.78846C6.21154 10.649 5.91587 11.1971 5.42308 11.4423C5.66827 11.5649 5.96154 11.6298 6.26923 11.6923L6.03846 12.3077C5.60817 12.1851 5.16106 11.9928 4.73077 11.8077C4.66827 11.7452 4.5625 11.75 4.5 11.75C3.76202 11.6875 3.07692 11.0769 3.07692 9.84615C3.07692 8.80048 3.6875 7.94231 4.67308 7.94231ZM4.67308 8.61539C4.18029 8.61539 3.94231 9.16827 3.94231 9.84615C3.94231 10.5841 4.18029 11.0769 4.67308 11.0769C5.16587 11.0769 5.42308 10.524 5.42308 9.84615C5.42308 9.16827 5.16587 8.61539 4.67308 8.61539Z" fill="#969FAF"/>
</svg>
