<svg width="16" height="19" viewBox="0 0 16 19" fill="none" xmlns="http://www.w3.org/2000/svg">
<path d="M2.52632 0C1.13305 0 0 1.1115 0 2.47826V16.6944C0 17.9657 1.13305 19 2.52632 19H15.5789C15.8114 19 16 18.8154 16 18.587C16 18.3585 15.8114 18.1739 15.5789 18.1739H2.52632C1.61347 18.1739 0.842105 17.4965 0.842105 16.6944C0.842105 15.903 1.58189 15.2826 2.52632 15.2826H15.5789C15.8114 15.2826 16 15.098 16 14.8696V0.413043C16 0.18463 15.8114 0 15.5789 0H2.52632ZM8.42105 2.8913C10.2783 2.8913 11.7895 4.37372 11.7895 6.19565C11.7895 8.58263 8.77662 12.2041 8.74589 12.2404C8.66631 12.3359 8.54695 12.3913 8.42105 12.3913C8.29516 12.3913 8.1758 12.3359 8.09622 12.2404C8.06548 12.2041 5.05263 8.58263 5.05263 6.19565C5.05263 4.37372 6.56379 2.8913 8.42105 2.8913ZM8.42105 4.95652C7.72343 4.95652 7.15789 5.5113 7.15789 6.19565C7.15789 6.88 7.72343 7.43478 8.42105 7.43478C9.11868 7.43478 9.68421 6.88 9.68421 6.19565C9.68421 5.5113 9.11868 4.95652 8.42105 4.95652Z" fill="#969FAF"/>
</svg>
