<svg width="16" height="13" viewBox="0 0 16 13" fill="none" xmlns="http://www.w3.org/2000/svg">
<path d="M8 0C7.80573 2.3444e-05 7.61955 0.0731668 7.48295 0.203125L0.147727 6.22471C0.0548229 6.28921 -4.43627e-06 6.39138 2.69228e-10 6.5C2.69228e-10 6.68894 0.162806 6.84211 0.363636 6.84211H2.18182V12.3158C2.18182 12.6935 2.50764 13 2.90909 13H5.81818C6.21964 13 6.54546 12.6935 6.54546 12.3158V8.21053H9.45455V12.3158C9.45455 12.6935 9.78036 13 10.1818 13H13.0909C13.4924 13 13.8182 12.6935 13.8182 12.3158V6.84211H15.6364C15.8372 6.84211 16 6.68894 16 6.5C16 6.39138 15.9452 6.28921 15.8523 6.22471L8.52131 0.207134C8.51989 0.205792 8.51847 0.204456 8.51705 0.203125C8.38045 0.0731668 8.19427 2.3444e-05 8 0Z" fill="#969FAF"/>
</svg>
