<svg width="25" height="23" viewBox="0 0 25 23" fill="none" xmlns="http://www.w3.org/2000/svg">
<path d="M25 11.2501L18.7507 16.2496V12.5H7.50185V10.0002H18.7507V6.25061L25 11.2501Z" fill="#969FAF"/>
<path d="M11.2501 4.29469e-05C12.728 -0.00405499 14.1921 0.285151 15.5574 0.850908C16.9228 1.41666 18.1623 2.24773 19.2042 3.29595L17.4369 5.06326C15.7846 3.41093 13.5873 2.49978 11.2501 2.49978C8.91281 2.49978 6.71554 3.41093 5.06322 5.06326C3.41089 6.71558 2.49974 8.91285 2.49974 11.2501C2.49974 13.5874 3.41089 15.7846 5.06322 17.437C6.71554 19.0893 8.91281 20.0004 11.2501 20.0004C13.5873 20.0004 15.7846 19.0893 17.4369 17.437L19.2042 19.2043C17.0807 21.329 14.256 22.5002 11.2501 22.5002C8.24413 22.5002 5.41943 21.329 3.2959 19.2043C1.17113 17.0807 0 14.256 0 11.2501C0 8.24417 1.17113 5.41947 3.2959 3.29595C4.3378 2.24773 5.57733 1.41666 6.9427 0.850908C8.30807 0.285151 9.77213 -0.00405499 11.2501 4.29469e-05Z" fill="#969FAF"/>
</svg>
