<svg width="33" height="20" viewBox="0 0 33 20" fill="none" xmlns="http://www.w3.org/2000/svg">
<path d="M9.30715 0C14.4474 0 18.614 4.4774 18.614 10.0002C18.614 15.5229 14.447 20 9.30715 20C4.16725 20 0 15.5229 0 10.0002C0 4.4774 4.16694 0 9.30715 0ZM24.17 0.585784C26.7401 0.585784 28.8236 4.80032 28.8236 10.0002H28.8239C28.8239 15.1987 26.7404 19.4146 24.1703 19.4146C21.6002 19.4146 19.5167 15.1987 19.5167 10.0002C19.5167 4.80167 21.5999 0.585784 24.17 0.585784ZM31.3633 1.56636C32.267 1.56636 33 5.34224 33 10.0002C33 14.6567 32.2674 18.434 31.3633 18.434C30.4593 18.434 29.727 14.6578 29.727 10.0002C29.727 5.34258 30.4596 1.56636 31.3633 1.56636Z" fill="#969FAF"/>
</svg>
