<svg width="21" height="21" viewBox="0 0 21 21" fill="none" xmlns="http://www.w3.org/2000/svg">
<path fill-rule="evenodd" clip-rule="evenodd" d="M8.87879 2C5.07974 2 2 5.07974 2 8.87879C2 12.6778 5.07974 15.7576 8.87879 15.7576C12.6778 15.7576 15.7576 12.6778 15.7576 8.87879C15.7576 5.07974 12.6778 2 8.87879 2ZM0 8.87879C0 3.97517 3.97517 0 8.87879 0C13.7824 0 17.7576 3.97517 17.7576 8.87879C17.7576 13.7824 13.7824 17.7576 8.87879 17.7576C3.97517 17.7576 0 13.7824 0 8.87879Z" fill="#7E8491"/>
<path d="M19.9652 20.8226C20.202 21.0592 20.5857 21.0592 20.8224 20.8226C21.059 20.5858 21.059 20.2021 20.8224 19.9654L19.9652 20.8226ZM20.8224 19.9654L14.7618 13.9047L13.9046 14.762L19.9652 20.8226L20.8224 19.9654Z" fill="#7E8491"/>
</svg>
