<svg width="25" height="25" viewBox="0 0 25 25" fill="none" xmlns="http://www.w3.org/2000/svg">
<path d="M12.5 0C10.2255 0 8.12309 0.563838 6.19266 1.69151C4.30046 2.80008 2.80008 4.30046 1.69151 6.19266C0.563838 8.12309 0 10.2255 0 12.5C0 14.7745 0.563838 16.8769 1.69151 18.8073C2.80008 20.6995 4.30046 22.1999 6.19266 23.3085C8.12309 24.4362 10.2255 25 12.5 25C14.7745 25 16.8769 24.4362 18.8073 23.3085C20.6995 22.1999 22.1999 20.6995 23.3085 18.8073C24.4362 16.8769 25 14.7792 25 12.5143C25 10.2494 24.4362 8.1422 23.3085 6.19266C22.1999 4.30046 20.6995 2.80008 18.8073 1.69151C16.8769 0.563838 14.7745 0 12.5 0ZM16.2844 7.05275C16.7622 7.05275 17.1732 7.35856 17.5172 7.97018C17.8612 8.5818 18.0333 9.31766 18.0333 10.1778C18.0333 11.0378 17.8612 11.7737 17.5172 12.3853C17.1732 12.9969 16.7575 13.3028 16.2701 13.3028C15.7827 13.3028 15.3718 12.9969 15.0373 12.3853C14.7028 11.7737 14.5356 11.0378 14.5356 10.1778C14.5356 9.31766 14.7028 8.5818 15.0373 7.97018C15.3718 7.35856 15.7875 7.05275 16.2844 7.05275ZM8.7156 7.05275C9.21254 7.05275 9.62825 7.35856 9.96273 7.97018C10.2972 8.5818 10.4644 9.31766 10.4644 10.1778C10.4644 11.0378 10.2972 11.7737 9.96273 12.3853C9.62825 12.9969 9.21732 13.3028 8.72993 13.3028C8.24255 13.3028 7.83161 12.9969 7.49713 12.3853C7.16265 11.7737 6.99541 11.0378 6.99541 10.1778C6.99541 9.31766 7.16265 8.5818 7.49713 7.97018C7.83161 7.35856 8.23777 7.05275 8.7156 7.05275ZM20.3268 17.0585C20.1548 17.3452 19.763 17.3739 19.1514 17.1445C18.4251 18.3486 17.4885 19.3043 16.3417 20.0115C15.1567 20.7378 13.8761 21.1009 12.5 21.1009C11.1239 21.1009 9.84327 20.7378 8.65826 20.0115C7.51147 19.3043 6.57492 18.3486 5.84862 17.1445C5.237 17.3739 4.84518 17.3452 4.67316 17.0585C4.55849 16.8674 4.58716 16.6476 4.75917 16.3991C4.93119 16.1124 5.26567 15.8257 5.76261 15.539C6.25956 15.2523 6.68005 15.0898 7.02408 15.0516C7.36812 15.0134 7.58792 15.0803 7.68349 15.2523C7.75994 15.3861 7.75516 15.5533 7.66915 15.754C7.58314 15.9547 7.4159 16.1602 7.16743 16.3704C7.77905 17.2114 8.54836 17.8804 9.47534 18.3773C10.4023 18.8742 11.4106 19.1227 12.5 19.1227C13.5894 19.1227 14.5977 18.8742 15.5247 18.3773C16.4516 17.8804 17.2209 17.2114 17.8326 16.3704C17.5841 16.1411 17.4169 15.9308 17.3308 15.7397C17.2448 15.5485 17.2401 15.3861 17.3165 15.2523C17.4121 15.0803 17.6319 15.0134 17.9759 15.0516C18.32 15.0898 18.7404 15.2523 19.2374 15.539C19.7343 15.8257 20.0688 16.1124 20.2408 16.3991C20.4128 16.6476 20.4415 16.8674 20.3268 17.0585Z" fill="#969FAF"/>
</svg>
