<svg width="16" height="16" viewBox="0 0 16 16" fill="none" xmlns="http://www.w3.org/2000/svg">
<path d="M7.57895 0C3.85853 0 0.842105 2.86559 0.842105 6.39997V7.19996V7.92183C0.358982 8.35949 0 8.92247 0 9.59995C0 10.5935 0.722148 11.3303 1.63651 11.6906C2.73212 14.1784 4.92652 15.9999 7.57895 15.9999H9.26316C9.56685 16.004 9.84933 15.8524 10.0024 15.6032C10.1555 15.354 10.1555 15.0458 10.0024 14.7966C9.84933 14.5474 9.56685 14.3958 9.26316 14.3999H7.57895C5.6771 14.3999 3.95028 13.0395 3.08224 10.8906C2.97211 10.6178 2.71425 10.4237 2.40954 10.3843C1.9948 10.3301 1.68421 10.012 1.68421 9.59995C1.68421 9.29196 1.84792 9.05033 2.10362 8.91089C2.36509 8.76821 2.52631 8.50361 2.52632 8.21715V7.99996V7.19996C2.52632 6.75837 2.90358 6.39997 3.36842 6.39997H11.7895C12.2543 6.39997 12.6316 6.75837 12.6316 7.19996V7.99996V11.1999H9.18915C9.01093 10.7211 8.53465 10.4007 8 10.3999C7.30238 10.3999 6.73684 10.9372 6.73684 11.5999C6.73773 12.2287 7.24937 12.7502 7.90954 12.7952C7.93958 12.7984 7.96978 12.7999 8 12.7999H13.4737H14.3158C15.2421 12.7999 16 12.0799 16 11.1999V9.59995C16 8.71996 15.2421 7.99996 14.3158 7.99996V6.39997C14.3158 2.86559 11.2994 0 7.57895 0Z" fill="#969FAF"/>
</svg>
