<svg width="19" height="18" viewBox="0 0 19 18" fill="none" xmlns="http://www.w3.org/2000/svg">
<path d="M15.1667 5V4.2C15.1667 3.0799 15.1667 2.51984 14.9608 2.09202C14.7797 1.71569 14.4907 1.40973 14.1353 1.21799C13.7313 1 13.2023 1 12.1444 1H4.02222C2.96434 1 2.4354 1 2.03135 1.21799C1.67593 1.40973 1.38697 1.71569 1.20588 2.09202C1 2.51984 1 3.0799 1 4.2V5M1 5V13.8C1 14.9201 1 15.4802 1.20588 15.908C1.38697 16.2843 1.67593 16.5903 2.03135 16.782C2.4354 17 2.96434 17 4.02222 17H14.9778C16.0357 17 16.5646 17 16.9687 16.782C17.3241 16.5903 17.6131 16.2843 17.7941 15.908C18 15.4802 18 14.9201 18 13.8V8.2C18 7.0799 18 6.51984 17.7941 6.09202C17.6131 5.71569 17.3241 5.40973 16.9687 5.21799C16.5646 5 16.0357 5 14.9778 5H1ZM18 9H16.1111C15.0679 9 14.2222 9.8954 14.2222 11C14.2222 12.1046 15.0679 13 16.1111 13H18" stroke="#969FAF" stroke-width="2" stroke-linecap="round" stroke-linejoin="round"/>
</svg>
