<svg width="16" height="16" viewBox="0 0 16 16" fill="none" xmlns="http://www.w3.org/2000/svg">
<path d="M6.22222 0C5.25061 0 4.44444 0.763737 4.44444 1.68421V3.36842H0V16H16V3.36842H11.5556V1.68421C11.5556 0.763737 10.7494 0 9.77778 0H6.22222ZM6.22222 1.68421H9.77778V3.36842H6.22222V1.68421ZM5.33333 5.05263C5.824 5.05263 6.22222 5.42989 6.22222 5.89474C6.22222 6.35958 5.824 6.73684 5.33333 6.73684C4.84267 6.73684 4.44444 6.35958 4.44444 5.89474C4.44444 5.42989 4.84267 5.05263 5.33333 5.05263ZM10.6667 5.05263C11.1573 5.05263 11.5556 5.42989 11.5556 5.89474C11.5556 6.35958 11.1573 6.73684 10.6667 6.73684C10.176 6.73684 9.77778 6.35958 9.77778 5.89474C9.77778 5.42989 10.176 5.05263 10.6667 5.05263Z" fill="#969FAF"/>
</svg>
