<svg width="27" height="20" viewBox="0 0 27 20" fill="none" xmlns="http://www.w3.org/2000/svg">
<path d="M13.491 0.0060525C9.96427 -0.037781 6.43837 0.15651 2.93497 0.587743C2.36644 0.762344 1.84926 1.08714 1.43213 1.53152C1.01502 1.97593 0.711669 2.5253 0.550661 3.12794C0.1714 5.39939 -0.0126443 7.70251 0.000765679 10.009C-0.0134613 12.3091 0.170601 14.6058 0.550661 16.8705C0.709627 17.4723 1.01257 18.0206 1.43021 18.4623C1.84785 18.9042 2.36612 19.2245 2.93497 19.3927C6.43741 19.8372 9.96374 20.0381 13.491 19.9939C17.023 20.0379 20.554 19.8436 24.0626 19.4122C24.6321 19.2491 25.1507 18.9301 25.5663 18.4873C25.9819 18.0444 26.2798 17.4935 26.4299 16.8901C26.8214 14.6266 27.0118 12.3295 26.9983 10.0285C27.0205 7.71529 26.8301 5.40525 26.4299 3.13095C26.2791 2.52979 25.9807 1.98153 25.5649 1.54174C25.1493 1.10194 24.631 0.786299 24.0626 0.626823C21.9455 0.0060525 13.491 0.0060525 13.491 0.0060525ZM10.8069 5.71774L17.8262 10.009L10.8055 14.2777V5.72075L10.8069 5.71774Z" fill="white"/>
</svg>
